<svg id="visual" viewBox="0 0 900 600" width="900" height="600" xmlns="http://www.w3.org/2000/svg" xmlns:xlink="http://www.w3.org/1999/xlink" version="1.1"><path d="M0 181L13.7 178C27.3 175 54.7 169 82 171C109.3 173 136.7 183 163.8 176C191 169 218 145 245.2 133C272.3 121 299.7 121 327 128C354.3 135 381.7 149 409 170C436.3 191 463.7 219 491 233C518.3 247 545.7 247 573 225C600.3 203 627.7 159 654.8 139C682 119 709 123 736.2 130C763.3 137 790.7 147 818 162C845.3 177 872.7 197 886.3 207L900 217L900 0L886.3 0C872.7 0 845.3 0 818 0C790.7 0 763.3 0 736.2 0C709 0 682 0 654.8 0C627.7 0 600.3 0 573 0C545.7 0 518.3 0 491 0C463.7 0 436.3 0 409 0C381.7 0 354.3 0 327 0C299.7 0 272.3 0 245.2 0C218 0 191 0 163.8 0C136.7 0 109.3 0 82 0C54.7 0 27.3 0 13.7 0L0 0Z" fill="#ffffff"></path><path d="M0 259L13.7 258C27.3 257 54.7 255 82 256C109.3 257 136.7 261 163.8 253C191 245 218 225 245.2 221C272.3 217 299.7 229 327 236C354.3 243 381.7 245 409 257C436.3 269 463.7 291 491 301C518.3 311 545.7 309 573 287C600.3 265 627.7 223 654.8 209C682 195 709 209 736.2 219C763.3 229 790.7 235 818 249C845.3 263 872.7 285 886.3 296L900 307L900 215L886.3 205C872.7 195 845.3 175 818 160C790.7 145 763.3 135 736.2 128C709 121 682 117 654.8 137C627.7 157 600.3 201 573 223C545.7 245 518.3 245 491 231C463.7 217 436.3 189 409 168C381.7 147 354.3 133 327 126C299.7 119 272.3 119 245.2 131C218 143 191 167 163.8 174C136.7 181 109.3 171 82 169C54.7 167 27.3 173 13.7 176L0 179Z" fill="#d8d7f4"></path><path d="M0 355L13.7 353C27.3 351 54.7 347 82 347C109.3 347 136.7 351 163.8 344C191 337 218 319 245.2 309C272.3 299 299.7 297 327 298C354.3 299 381.7 303 409 320C436.3 337 463.7 367 491 382C518.3 397 545.7 397 573 377C600.3 357 627.7 317 654.8 296C682 275 709 273 736.2 282C763.3 291 790.7 311 818 332C845.3 353 872.7 375 886.3 386L900 397L900 305L886.3 294C872.7 283 845.3 261 818 247C790.7 233 763.3 227 736.2 217C709 207 682 193 654.8 207C627.7 221 600.3 263 573 285C545.7 307 518.3 309 491 299C463.7 289 436.3 267 409 255C381.7 243 354.3 241 327 234C299.7 227 272.3 215 245.2 219C218 223 191 243 163.8 251C136.7 259 109.3 255 82 254C54.7 253 27.3 255 13.7 256L0 257Z" fill="#afb0e8"></path><path d="M0 487L13.7 494C27.3 501 54.7 515 82 524C109.3 533 136.7 537 163.8 537C191 537 218 533 245.2 523C272.3 513 299.7 497 327 494C354.3 491 381.7 501 409 505C436.3 509 463.7 507 491 510C518.3 513 545.7 521 573 519C600.3 517 627.7 505 654.8 496C682 487 709 481 736.2 484C763.3 487 790.7 499 818 502C845.3 505 872.7 499 886.3 496L900 493L900 395L886.3 384C872.7 373 845.3 351 818 330C790.7 309 763.3 289 736.2 280C709 271 682 273 654.8 294C627.7 315 600.3 355 573 375C545.7 395 518.3 395 491 380C463.7 365 436.3 335 409 318C381.7 301 354.3 297 327 296C299.7 295 272.3 297 245.2 307C218 317 191 335 163.8 342C136.7 349 109.3 345 82 345C54.7 345 27.3 349 13.7 351L0 353Z" fill="#848bdc"></path><path d="M0 601L13.7 601C27.3 601 54.7 601 82 601C109.3 601 136.7 601 163.8 601C191 601 218 601 245.2 601C272.3 601 299.7 601 327 601C354.3 601 381.7 601 409 601C436.3 601 463.7 601 491 601C518.3 601 545.7 601 573 601C600.3 601 627.7 601 654.8 601C682 601 709 601 736.2 601C763.3 601 790.7 601 818 601C845.3 601 872.7 601 886.3 601L900 601L900 491L886.3 494C872.7 497 845.3 503 818 500C790.7 497 763.3 485 736.2 482C709 479 682 485 654.8 494C627.7 503 600.3 515 573 517C545.7 519 518.3 511 491 508C463.7 505 436.3 507 409 503C381.7 499 354.3 489 327 492C299.7 495 272.3 511 245.2 521C218 531 191 535 163.8 535C136.7 535 109.3 531 82 522C54.7 513 27.3 499 13.7 492L0 485Z" fill="#5168cf"></path></svg>