<svg id="visual" viewBox="0 0 900 600" width="900" height="600" xmlns="http://www.w3.org/2000/svg" xmlns:xlink="http://www.w3.org/1999/xlink" version="1.1"><path d="M0 73L11.5 68C23 63 46 53 69 53C92 53 115 63 138.2 62C161.3 61 184.7 49 207.8 47C231 45 254 53 277 56C300 59 323 57 346 55C369 53 392 51 415.2 49C438.3 47 461.7 45 484.8 51C508 57 531 71 554 70C577 69 600 53 623 51C646 49 669 61 692.2 65C715.3 69 738.7 65 761.8 65C785 65 808 69 831 68C854 67 877 61 888.5 58L900 55L900 0L888.5 0C877 0 854 0 831 0C808 0 785 0 761.8 0C738.7 0 715.3 0 692.2 0C669 0 646 0 623 0C600 0 577 0 554 0C531 0 508 0 484.8 0C461.7 0 438.3 0 415.2 0C392 0 369 0 346 0C323 0 300 0 277 0C254 0 231 0 207.8 0C184.7 0 161.3 0 138.2 0C115 0 92 0 69 0C46 0 23 0 11.5 0L0 0Z" fill="#ffffff"></path><path d="M0 127L11.5 123C23 119 46 111 69 107C92 103 115 103 138.2 98C161.3 93 184.7 83 207.8 84C231 85 254 97 277 98C300 99 323 89 346 89C369 89 392 99 415.2 103C438.3 107 461.7 105 484.8 106C508 107 531 111 554 107C577 103 600 91 623 93C646 95 669 111 692.2 116C715.3 121 738.7 115 761.8 115C785 115 808 121 831 116C854 111 877 95 888.5 87L900 79L900 53L888.5 56C877 59 854 65 831 66C808 67 785 63 761.8 63C738.7 63 715.3 67 692.2 63C669 59 646 47 623 49C600 51 577 67 554 68C531 69 508 55 484.8 49C461.7 43 438.3 45 415.2 47C392 49 369 51 346 53C323 55 300 57 277 54C254 51 231 43 207.8 45C184.7 47 161.3 59 138.2 60C115 61 92 51 69 51C46 51 23 61 11.5 66L0 71Z" fill="#e8e1ee"></path><path d="M0 193L11.5 184C23 175 46 157 69 154C92 151 115 163 138.2 164C161.3 165 184.7 155 207.8 156C231 157 254 169 277 169C300 169 323 157 346 150C369 143 392 141 415.2 142C438.3 143 461.7 147 484.8 156C508 165 531 179 554 179C577 179 600 165 623 166C646 167 669 183 692.2 187C715.3 191 738.7 183 761.8 176C785 169 808 163 831 156C854 149 877 141 888.5 137L900 133L900 77L888.5 85C877 93 854 109 831 114C808 119 785 113 761.8 113C738.7 113 715.3 119 692.2 114C669 109 646 93 623 91C600 89 577 101 554 105C531 109 508 105 484.8 104C461.7 103 438.3 105 415.2 101C392 97 369 87 346 87C323 87 300 97 277 96C254 95 231 83 207.8 82C184.7 81 161.3 91 138.2 96C115 101 92 101 69 105C46 109 23 117 11.5 121L0 125Z" fill="#d0c3de"></path><path d="M0 343L11.5 327C23 311 46 279 69 268C92 257 115 267 138.2 273C161.3 279 184.7 281 207.8 289C231 297 254 311 277 315C300 319 323 313 346 314C369 315 392 323 415.2 329C438.3 335 461.7 339 484.8 343C508 347 531 351 554 342C577 333 600 311 623 311C646 311 669 333 692.2 343C715.3 353 738.7 351 761.8 338C785 325 808 301 831 282C854 263 877 249 888.5 242L900 235L900 131L888.5 135C877 139 854 147 831 154C808 161 785 167 761.8 174C738.7 181 715.3 189 692.2 185C669 181 646 165 623 164C600 163 577 177 554 177C531 177 508 163 484.8 154C461.7 145 438.3 141 415.2 140C392 139 369 141 346 148C323 155 300 167 277 167C254 167 231 155 207.8 154C184.7 153 161.3 163 138.2 162C115 161 92 149 69 152C46 155 23 173 11.5 182L0 191Z" fill="#b9a6cd"></path><path d="M0 367L11.5 352C23 337 46 307 69 297C92 287 115 297 138.2 303C161.3 309 184.7 311 207.8 318C231 325 254 337 277 342C300 347 323 345 346 351C369 357 392 371 415.2 380C438.3 389 461.7 393 484.8 392C508 391 531 385 554 373C577 361 600 343 623 343C646 343 669 361 692.2 372C715.3 383 738.7 387 761.8 379C785 371 808 351 831 334C854 317 877 303 888.5 296L900 289L900 233L888.5 240C877 247 854 261 831 280C808 299 785 323 761.8 336C738.7 349 715.3 351 692.2 341C669 331 646 309 623 309C600 309 577 331 554 340C531 349 508 345 484.8 341C461.7 337 438.3 333 415.2 327C392 321 369 313 346 312C323 311 300 317 277 313C254 309 231 295 207.8 287C184.7 279 161.3 277 138.2 271C115 265 92 255 69 266C46 277 23 309 11.5 325L0 341Z" fill="#a28abd"></path><path d="M0 433L11.5 432C23 431 46 429 69 435C92 441 115 455 138.2 455C161.3 455 184.7 441 207.8 437C231 433 254 439 277 438C300 437 323 429 346 433C369 437 392 453 415.2 463C438.3 473 461.7 477 484.8 476C508 475 531 469 554 460C577 451 600 439 623 443C646 447 669 467 692.2 477C715.3 487 738.7 487 761.8 484C785 481 808 475 831 465C854 455 877 441 888.5 434L900 427L900 287L888.5 294C877 301 854 315 831 332C808 349 785 369 761.8 377C738.7 385 715.3 381 692.2 370C669 359 646 341 623 341C600 341 577 359 554 371C531 383 508 389 484.8 390C461.7 391 438.3 387 415.2 378C392 369 369 355 346 349C323 343 300 345 277 340C254 335 231 323 207.8 316C184.7 309 161.3 307 138.2 301C115 295 92 285 69 295C46 305 23 335 11.5 350L0 365Z" fill="#8b6fad"></path><path d="M0 481L11.5 480C23 479 46 477 69 481C92 485 115 495 138.2 492C161.3 489 184.7 473 207.8 470C231 467 254 477 277 479C300 481 323 475 346 476C369 477 392 485 415.2 492C438.3 499 461.7 505 484.8 503C508 501 531 491 554 483C577 475 600 469 623 475C646 481 669 499 692.2 507C715.3 515 738.7 513 761.8 511C785 509 808 507 831 500C854 493 877 481 888.5 475L900 469L900 425L888.5 432C877 439 854 453 831 463C808 473 785 479 761.8 482C738.7 485 715.3 485 692.2 475C669 465 646 445 623 441C600 437 577 449 554 458C531 467 508 473 484.8 474C461.7 475 438.3 471 415.2 461C392 451 369 435 346 431C323 427 300 435 277 436C254 437 231 431 207.8 435C184.7 439 161.3 453 138.2 453C115 453 92 439 69 433C46 427 23 429 11.5 430L0 431Z" fill="#74549c"></path><path d="M0 559L11.5 561C23 563 46 567 69 567C92 567 115 563 138.2 563C161.3 563 184.7 567 207.8 571C231 575 254 579 277 581C300 583 323 583 346 582C369 581 392 579 415.2 579C438.3 579 461.7 581 484.8 578C508 575 531 567 554 567C577 567 600 575 623 577C646 579 669 575 692.2 573C715.3 571 738.7 571 761.8 569C785 567 808 563 831 563C854 563 877 567 888.5 569L900 571L900 467L888.5 473C877 479 854 491 831 498C808 505 785 507 761.8 509C738.7 511 715.3 513 692.2 505C669 497 646 479 623 473C600 467 577 473 554 481C531 489 508 499 484.8 501C461.7 503 438.3 497 415.2 490C392 483 369 475 346 474C323 473 300 479 277 477C254 475 231 465 207.8 468C184.7 471 161.3 487 138.2 490C115 493 92 483 69 479C46 475 23 477 11.5 478L0 479Z" fill="#5d3a8c"></path><path d="M0 601L11.5 601C23 601 46 601 69 601C92 601 115 601 138.2 601C161.3 601 184.7 601 207.8 601C231 601 254 601 277 601C300 601 323 601 346 601C369 601 392 601 415.2 601C438.3 601 461.7 601 484.8 601C508 601 531 601 554 601C577 601 600 601 623 601C646 601 669 601 692.2 601C715.3 601 738.7 601 761.8 601C785 601 808 601 831 601C854 601 877 601 888.5 601L900 601L900 569L888.5 567C877 565 854 561 831 561C808 561 785 565 761.8 567C738.7 569 715.3 569 692.2 571C669 573 646 577 623 575C600 573 577 565 554 565C531 565 508 573 484.8 576C461.7 579 438.3 577 415.2 577C392 577 369 579 346 580C323 581 300 581 277 579C254 577 231 573 207.8 569C184.7 565 161.3 561 138.2 561C115 561 92 565 69 565C46 565 23 561 11.5 559L0 557Z" fill="#44207c"></path></svg>