<svg id="visual" viewBox="0 0 900 600" width="900" height="600" xmlns="http://www.w3.org/2000/svg" xmlns:xlink="http://www.w3.org/1999/xlink" version="1.1"><path d="M0 223L11.5 218C23 213 46 203 69 190C92 177 115 161 138.2 152C161.3 143 184.7 141 207.8 152C231 163 254 187 277 196C300 205 323 199 346 201C369 203 392 213 415.2 221C438.3 229 461.7 235 484.8 234C508 233 531 225 554 204C577 183 600 149 623 143C646 137 669 159 692.2 166C715.3 173 738.7 165 761.8 156C785 147 808 137 831 140C854 143 877 159 888.5 167L900 175L900 0L888.5 0C877 0 854 0 831 0C808 0 785 0 761.8 0C738.7 0 715.3 0 692.2 0C669 0 646 0 623 0C600 0 577 0 554 0C531 0 508 0 484.8 0C461.7 0 438.3 0 415.2 0C392 0 369 0 346 0C323 0 300 0 277 0C254 0 231 0 207.8 0C184.7 0 161.3 0 138.2 0C115 0 92 0 69 0C46 0 23 0 11.5 0L0 0Z" fill="#ffffff"></path><path d="M0 325L11.5 318C23 311 46 297 69 279C92 261 115 239 138.2 234C161.3 229 184.7 241 207.8 264C231 287 254 321 277 336C300 351 323 347 346 339C369 331 392 319 415.2 313C438.3 307 461.7 307 484.8 305C508 303 531 299 554 284C577 269 600 243 623 239C646 235 669 253 692.2 265C715.3 277 738.7 283 761.8 270C785 257 808 225 831 218C854 211 877 229 888.5 238L900 247L900 173L888.5 165C877 157 854 141 831 138C808 135 785 145 761.8 154C738.7 163 715.3 171 692.2 164C669 157 646 135 623 141C600 147 577 181 554 202C531 223 508 231 484.8 232C461.7 233 438.3 227 415.2 219C392 211 369 201 346 199C323 197 300 203 277 194C254 185 231 161 207.8 150C184.7 139 161.3 141 138.2 150C115 159 92 175 69 188C46 201 23 211 11.5 216L0 221Z" fill="#d0c3de"></path><path d="M0 379L11.5 379C23 379 46 379 69 368C92 357 115 335 138.2 331C161.3 327 184.7 341 207.8 360C231 379 254 403 277 417C300 431 323 435 346 431C369 427 392 415 415.2 408C438.3 401 461.7 399 484.8 399C508 399 531 401 554 386C577 371 600 339 623 325C646 311 669 315 692.2 330C715.3 345 738.7 371 761.8 363C785 355 808 313 831 300C854 287 877 303 888.5 311L900 319L900 245L888.5 236C877 227 854 209 831 216C808 223 785 255 761.8 268C738.7 281 715.3 275 692.2 263C669 251 646 233 623 237C600 241 577 267 554 282C531 297 508 301 484.8 303C461.7 305 438.3 305 415.2 311C392 317 369 329 346 337C323 345 300 349 277 334C254 319 231 285 207.8 262C184.7 239 161.3 227 138.2 232C115 237 92 259 69 277C46 295 23 309 11.5 316L0 323Z" fill="#a28abd"></path><path d="M0 475L11.5 467C23 459 46 443 69 431C92 419 115 411 138.2 413C161.3 415 184.7 427 207.8 443C231 459 254 479 277 488C300 497 323 495 346 494C369 493 392 493 415.2 491C438.3 489 461.7 485 484.8 484C508 483 531 485 554 463C577 441 600 395 623 381C646 367 669 385 692.2 402C715.3 419 738.7 435 761.8 422C785 409 808 367 831 360C854 353 877 381 888.5 395L900 409L900 317L888.5 309C877 301 854 285 831 298C808 311 785 353 761.8 361C738.7 369 715.3 343 692.2 328C669 313 646 309 623 323C600 337 577 369 554 384C531 399 508 397 484.8 397C461.7 397 438.3 399 415.2 406C392 413 369 425 346 429C323 433 300 429 277 415C254 401 231 377 207.8 358C184.7 339 161.3 325 138.2 329C115 333 92 355 69 366C46 377 23 377 11.5 377L0 377Z" fill="#74549c"></path><path d="M0 601L11.5 601C23 601 46 601 69 601C92 601 115 601 138.2 601C161.3 601 184.7 601 207.8 601C231 601 254 601 277 601C300 601 323 601 346 601C369 601 392 601 415.2 601C438.3 601 461.7 601 484.8 601C508 601 531 601 554 601C577 601 600 601 623 601C646 601 669 601 692.2 601C715.3 601 738.7 601 761.8 601C785 601 808 601 831 601C854 601 877 601 888.5 601L900 601L900 407L888.5 393C877 379 854 351 831 358C808 365 785 407 761.8 420C738.7 433 715.3 417 692.2 400C669 383 646 365 623 379C600 393 577 439 554 461C531 483 508 481 484.8 482C461.7 483 438.3 487 415.2 489C392 491 369 491 346 492C323 493 300 495 277 486C254 477 231 457 207.8 441C184.7 425 161.3 413 138.2 411C115 409 92 417 69 429C46 441 23 457 11.5 465L0 473Z" fill="#44207c"></path></svg>