<svg id="visual" viewBox="0 0 900 600" width="900" height="600" xmlns="http://www.w3.org/2000/svg" xmlns:xlink="http://www.w3.org/1999/xlink" version="1.1"><path d="M0 115L13.7 133C27.3 151 54.7 187 82 201C109.3 215 136.7 207 163.8 195C191 183 218 167 245.2 179C272.3 191 299.7 231 327 220C354.3 209 381.7 147 409 132C436.3 117 463.7 149 491 173C518.3 197 545.7 213 573 211C600.3 209 627.7 189 654.8 177C682 165 709 161 736.2 151C763.3 141 790.7 125 818 113C845.3 101 872.7 93 886.3 89L900 85L900 0L886.3 0C872.7 0 845.3 0 818 0C790.7 0 763.3 0 736.2 0C709 0 682 0 654.8 0C627.7 0 600.3 0 573 0C545.7 0 518.3 0 491 0C463.7 0 436.3 0 409 0C381.7 0 354.3 0 327 0C299.7 0 272.3 0 245.2 0C218 0 191 0 163.8 0C136.7 0 109.3 0 82 0C54.7 0 27.3 0 13.7 0L0 0Z" fill="#ffffff"></path><path d="M0 427L13.7 410C27.3 393 54.7 359 82 352C109.3 345 136.7 365 163.8 375C191 385 218 385 245.2 385C272.3 385 299.7 385 327 367C354.3 349 381.7 313 409 308C436.3 303 463.7 329 491 345C518.3 361 545.7 367 573 364C600.3 361 627.7 349 654.8 341C682 333 709 329 736.2 340C763.3 351 790.7 377 818 374C845.3 371 872.7 339 886.3 323L900 307L900 83L886.3 87C872.7 91 845.3 99 818 111C790.7 123 763.3 139 736.2 149C709 159 682 163 654.8 175C627.7 187 600.3 207 573 209C545.7 211 518.3 195 491 171C463.7 147 436.3 115 409 130C381.7 145 354.3 207 327 218C299.7 229 272.3 189 245.2 177C218 165 191 181 163.8 193C136.7 205 109.3 213 82 199C54.7 185 27.3 149 13.7 131L0 113Z" fill="#d8d7f4"></path><path d="M0 463L13.7 448C27.3 433 54.7 403 82 401C109.3 399 136.7 425 163.8 442C191 459 218 467 245.2 464C272.3 461 299.7 447 327 420C354.3 393 381.7 353 409 349C436.3 345 463.7 377 491 397C518.3 417 545.7 425 573 430C600.3 435 627.7 437 654.8 434C682 431 709 423 736.2 424C763.3 425 790.7 435 818 430C845.3 425 872.7 405 886.3 395L900 385L900 305L886.3 321C872.7 337 845.3 369 818 372C790.7 375 763.3 349 736.2 338C709 327 682 331 654.8 339C627.7 347 600.3 359 573 362C545.7 365 518.3 359 491 343C463.7 327 436.3 301 409 306C381.7 311 354.3 347 327 365C299.7 383 272.3 383 245.2 383C218 383 191 383 163.8 373C136.7 363 109.3 343 82 350C54.7 357 27.3 391 13.7 408L0 425Z" fill="#afb0e8"></path><path d="M0 547L13.7 540C27.3 533 54.7 519 82 521C109.3 523 136.7 541 163.8 548C191 555 218 551 245.2 542C272.3 533 299.7 519 327 506C354.3 493 381.7 481 409 482C436.3 483 463.7 497 491 505C518.3 513 545.7 515 573 520C600.3 525 627.7 533 654.8 528C682 523 709 505 736.2 508C763.3 511 790.7 535 818 537C845.3 539 872.7 519 886.3 509L900 499L900 383L886.3 393C872.7 403 845.3 423 818 428C790.7 433 763.3 423 736.2 422C709 421 682 429 654.8 432C627.7 435 600.3 433 573 428C545.7 423 518.3 415 491 395C463.7 375 436.3 343 409 347C381.7 351 354.3 391 327 418C299.7 445 272.3 459 245.2 462C218 465 191 457 163.8 440C136.7 423 109.3 397 82 399C54.7 401 27.3 431 13.7 446L0 461Z" fill="#848bdc"></path><path d="M0 601L13.7 601C27.3 601 54.7 601 82 601C109.3 601 136.7 601 163.8 601C191 601 218 601 245.2 601C272.3 601 299.7 601 327 601C354.3 601 381.7 601 409 601C436.3 601 463.7 601 491 601C518.3 601 545.7 601 573 601C600.3 601 627.7 601 654.8 601C682 601 709 601 736.2 601C763.3 601 790.7 601 818 601C845.3 601 872.7 601 886.3 601L900 601L900 497L886.3 507C872.7 517 845.3 537 818 535C790.7 533 763.3 509 736.2 506C709 503 682 521 654.8 526C627.7 531 600.3 523 573 518C545.7 513 518.3 511 491 503C463.7 495 436.3 481 409 480C381.7 479 354.3 491 327 504C299.7 517 272.3 531 245.2 540C218 549 191 553 163.8 546C136.7 539 109.3 521 82 519C54.7 517 27.3 531 13.7 538L0 545Z" fill="#5168cf"></path></svg>